<svg id="Layer_1" data-name="Layer 1" xmlns="http://www.w3.org/2000/svg" viewBox="0 0 293.66 59.79">
    <defs>
        <style>.cls-1{fill:#1a92dc;}</style>
    </defs>
    <title>Luremo2</title>
    <path class="cls-1" d="M80,286.44V241.39H90v36h17.58v9.05Z" transform="translate(-80.03 -234.34)"/>
    <path class="cls-1"
          d="M117.85,241.39h10v25.79c0,7.3,3.1,10.92,9.24,10.92s9.18-3.62,9.18-10.92V241.39h9.95v26.82c0,6.08-1.8,10.73-5.42,14A19.62,19.62,0,0,1,137,287.15q-8.34,0-13.77-4.85c-3.61-3.29-5.42-7.95-5.42-14.09Z"
          transform="translate(-80.03 -234.34)"/>
    <path class="cls-1"
          d="M171,286.44V241.39h18.87a14.88,14.88,0,0,1,10.8,4.33,14.35,14.35,0,0,1-3.49,23.33l11,17.39H196.9l-9.37-15h-6.66v15Zm9.89-23.79h7.89c3.87,0,6.46-2.45,6.46-6.27a5.67,5.67,0,0,0-5.62-5.94h-8.73Z"
          transform="translate(-80.03 -234.34)"/>
    <path class="cls-1" d="M219.85,286.44V241.39h30.76v9.05H229.8v8.46h19.46v8.86H229.8v9.63h21.27v9.05Z"
          transform="translate(-80.03 -234.34)"/>
    <path class="cls-1"
          d="M264.9,286.44V241.39h8.34l15.45,23.07,15.45-23.07h8.33v45.05H303.1V259L288.69,280.3,274.21,259v27.47Z"
          transform="translate(-80.03 -234.34)"/>
    <path class="cls-1"
          d="M346.5,263.81l2.08-5.49,2.07-5.45,7.13-18.53-7.21,6.36-.93,0a23.78,23.78,0,0,0-17.06,6.78,23.18,23.18,0,0,0,0,33.16,24.76,24.76,0,0,0,5.9,4.17l5.92-15.49Zm-4.74,3.77-2.09,5.48-9.32-5.3v-4.71l16.76-9.54-3.27,8.58-6.07,3.31Z"
          transform="translate(-80.03 -234.34)"/>
    <path class="cls-1"
          d="M373.69,264a22,22,0,0,0-7.05-16.55,24.12,24.12,0,0,0-6.33-4.44l-8.91,23.47-2.12,5.57-8.53,22.08,9.91-6.84a23.64,23.64,0,0,0,16-6.68A22.31,22.31,0,0,0,373.69,264Zm-18.24.48,6.07-3.31-4-2.18,2.09-5.49,9.32,5.3v4.72l-16.76,9.53Z"
          transform="translate(-80.03 -234.34)"/>
</svg>
