<?xml version="1.0" encoding="UTF-8"?>
<svg viewBox="0 0 1440 856" version="1.1" xmlns="http://www.w3.org/2000/svg" xmlns:xlink="http://www.w3.org/1999/xlink">
    <title>Background</title>
    <defs>
        <rect id="path-1" x="0" y="0" width="1440" height="856"></rect>
    </defs>
    <g id="Symbols" stroke="none" stroke-width="1" fill="none" fill-rule="evenodd">
        <g id="Background">
            <mask id="mask-2" fill="white">
                <use xlink:href="#path-1"></use>
            </mask>
            <g id="Mask"></g>
            <g id="Shapes" mask="url(#mask-2)">
                <g transform="translate(629.185080, 949.653694) rotate(8.000000) translate(-629.185080, -949.653694) translate(-821.814920, -518.346306)">
                    <path d="M1279.93583,2308.87029 C1670.38243,2308.49071 1908.83308,1461.48375 2146.56161,1413.98845 C2522.74874,1338.83079 2139.13599,1379.97912 2146.55368,1385.07048 C2216.63754,1433.17463 427.174265,989.47753 427.174265,1426.20281 C427.174265,1713.33325 1207.66451,2156.8054 924.994937,2450.87335 C642.32536,2744.94131 875.298844,2309.26366 1279.93583,2308.87029 Z" id="Mask" fill="#0E8DF2" opacity="0.719999969" transform="translate(1369.645952, 1892.463559) rotate(260.000000) translate(-1369.645952, -1892.463559) "></path>
                    <path d="M1173.18327,2079.59224 C1563.64022,2079.20036 1802.12391,1232.20829 2039.86023,1184.70675 C2416.05969,1109.53921 2032.43549,1150.69856 2039.85322,1155.78954 C2109.93741,1203.89021 320.449749,760.261325 320.426975,1196.97504 C320.426975,1484.09788 1100.91484,1927.53366 818.228499,2221.60275 C535.542158,2515.67183 768.535557,2079.99837 1173.18327,2079.59224 Z" id="Mask" fill="#0E8DF2" opacity="0.239999995" transform="translate(1262.924470, 1663.210122) rotate(240.000000) translate(-1262.924470, -1663.210122) "></path>
                    <path d="M717.172943,2003.97321 C1107.65856,2003.58539 1312.97462,1196.41525 1594.04307,1137.01875 C3022.09454,835.237243 2316.87783,657.302401 2206.72426,553.017506 C2102.42708,454.276992 336.064804,1213.42298 336.046536,1650.10463 C336.034526,1937.20639 644.897635,1851.92505 362.193573,2145.96963 C79.4895116,2440.01421 312.495521,2004.37514 717.172943,2003.97321 Z" id="Mask" fill="#FFFFFF" opacity="0.479999989" transform="translate(1357.701673, 1396.075313) rotate(202.000000) translate(-1357.701673, -1396.075313) "></path>
                    <path d="M1020.12414,1410.56674 C1466.03613,1454.63349 1549.61983,769.274639 2193.43258,715.36542 C2837.24533,661.456201 2672.46188,448.289636 2562.3083,344.004741 C2458.01112,245.264228 596.884886,786.185037 596.866618,1222.86669 C596.854608,1509.96845 1000.48168,1642.91229 717.77762,1936.95687 C435.073558,2231.00145 574.212152,1366.49999 1020.12414,1410.56674 Z" id="Mask-(Edit)" fill="#FFFFFF" transform="translate(1618.559556, 1165.150387) rotate(202.000000) translate(-1618.559556, -1165.150387) "></path>
                </g>
            </g>
        </g>
    </g>
</svg>